<svg width="462" height="255" viewBox="0 0 462 255" fill="none" xmlns="http://www.w3.org/2000/svg">
<path d="M282.35 88.262C282.777 87.9081 283.01 87.745 283.207 87.5446C286.163 84.5203 289.221 81.5941 292.045 78.444C298.722 70.998 304.382 62.8139 308.206 53.383C310.898 46.74 312.563 39.8884 311.799 32.5999C311.527 30.011 310.931 27.5119 309.513 25.3059C308.079 23.075 306.873 22.7308 304.875 24.4268C303.267 25.7952 301.783 27.4166 300.569 29.1678C297.63 33.4002 295.747 38.2076 294.381 43.1891C290.846 56.0756 287.43 68.998 283.974 81.9079C283.433 83.9342 282.933 85.9744 282.35 88.262ZM156.675 113.291C157.085 112.948 157.315 112.781 157.517 112.582C159.089 111.027 160.686 109.498 162.217 107.902C168.33 101.526 173.945 94.7059 179.222 87.5722C186.274 78.0405 192.03 67.7996 195.426 56.2497C197.932 47.7311 199.42 39.0701 198.394 30.1188C198.087 27.4456 197.485 24.8539 196.221 22.453C195.747 21.5532 195.262 21.4357 194.517 22.0218C193.678 22.6824 192.778 23.2699 192.001 23.9983C188.674 27.118 186.133 30.8915 183.803 34.8239C178.774 43.3149 174.933 52.3961 171.517 61.6805C166.402 75.5732 162.39 89.8197 158.854 104.218C158.131 107.16 157.439 110.109 156.675 113.291ZM150.721 144.507C150.577 144.792 150.316 145.093 150.269 145.427C149.168 153.287 147.955 161.135 147.039 169.02C145.898 178.858 145.397 188.75 145.638 198.667C145.817 205.996 146.413 213.278 148.139 220.413C149.123 224.476 150.373 228.439 152.878 231.821C154.791 234.403 156.017 234.549 158.438 232.5C161.037 230.298 162.865 227.466 164.371 224.408C168.559 215.914 170.073 206.763 170.337 197.347C170.546 189.818 170.01 182.324 168.841 174.886C167.671 167.438 165.749 160.222 162.647 153.369C162.287 152.573 161.799 152.104 161.023 151.71C159.05 150.714 157.073 149.678 155.251 148.416C153.675 147.323 152.311 145.901 150.721 144.507ZM-0.000488281 125.073C0.286178 124.133 0.490188 123.156 0.871521 122.26C3.62885 115.779 11.7915 114.021 16.7702 118.886C23.6142 125.574 30.9795 131.517 39.2142 136.265C49.0622 141.947 59.5408 145.674 70.7382 147.121C83.3635 148.755 95.7248 147.341 107.857 143.494C116.045 140.898 123.795 137.267 131.229 132.875C131.839 132.515 132.056 132.038 132.195 131.408C134.045 123.054 135.83 114.685 137.77 106.352C142.214 87.2613 147.41 68.4036 154.458 50.1431C158.201 40.4454 162.453 31.0048 167.937 22.2111C171.545 16.4279 175.593 11.0179 180.853 6.70949C184.786 3.48754 189.122 1.12807 194.211 0.774226C203.043 0.160517 209.225 4.5546 213.542 12.1817C216.219 16.9117 217.543 22.1282 218.153 27.5313C219.818 42.3045 217.037 56.3879 211.906 70.0982C207.437 82.0434 200.807 92.6519 193.223 102.68C186.466 111.616 179.161 120.025 171.122 127.745C171.006 127.857 170.863 127.94 170.699 128.063C171.854 129.644 173.085 131.056 173.997 132.662C174.925 134.294 176.166 134.862 177.911 135.089C184.123 135.893 190.282 135.575 196.427 134.515C208.726 132.389 220.235 127.817 231.439 122.314C239.558 118.327 247.367 113.752 255.054 108.941C256.395 108.102 257.133 107.042 257.517 105.428C262.837 83.0966 268.603 60.8871 274.77 38.7909C276.946 30.9951 279.869 23.5298 284.409 16.8467C288.023 11.5279 292.425 7.12276 298.301 4.56288C308.757 0.00984184 319.839 3.73773 326.225 13.8984C329.507 19.1219 331.187 24.9106 331.746 31.0615C332.839 43.0923 330.019 54.3298 325.101 65.1001C320.173 75.8966 313.373 85.3455 305.482 93.983C303.658 95.9789 301.738 97.8795 299.866 99.8256C299.733 99.9625 299.619 100.12 299.578 100.17C301.787 101.721 304.05 103.153 306.146 104.814C310.591 108.337 313.937 112.89 317.097 117.63C323.25 126.861 330.266 135.296 338.814 142.268C348.118 149.858 358.533 154.82 370.326 156.437C379.278 157.666 388.115 156.828 396.853 154.625C409.794 151.359 421.698 145.566 433.041 138.47C437.277 135.819 441.391 132.952 445.51 130.105C451.331 126.081 459.173 128.916 460.989 135.757C462.074 139.848 460.553 144.12 457.049 146.651C448.941 152.508 440.537 157.857 431.71 162.48C422.275 167.423 412.513 171.455 402.239 174.099C392.274 176.665 382.175 177.786 371.919 176.947C357.802 175.793 344.883 171.005 333.062 162.972C321.559 155.155 312.105 145.128 303.889 133.78C301.626 130.655 299.518 127.407 297.211 124.317C295.237 121.67 292.838 119.426 289.811 118.159C284.999 116.147 280.358 116.483 275.963 119.565C274.854 120.343 274.267 121.224 273.963 122.581C270.95 136.092 267.866 149.584 264.811 163.086C263.553 168.649 258.302 172.088 252.915 170.848C247.537 169.611 244.121 164.16 245.334 158.584C246.942 151.193 248.637 143.822 250.293 136.442C250.342 136.221 250.374 135.997 250.446 135.586C249.207 136.253 248.098 136.847 246.989 137.441C234.557 144.091 221.743 149.734 208.114 153.207C200.738 155.088 193.263 156.234 185.654 156.305C185.527 156.306 185.401 156.321 185.17 156.338C185.575 157.886 185.982 159.394 186.369 160.907C188.653 169.848 189.766 178.961 190.189 188.184C190.489 194.685 190.385 201.169 189.573 207.625C188.101 219.319 185.011 230.439 178.462 240.268C174.821 245.734 170.322 250.267 164.285 252.786C155.435 256.48 147.421 254.811 140.389 248.225C135.49 243.636 132.606 237.711 130.489 231.345C128.069 224.068 126.903 216.529 126.245 208.89C125.675 202.277 125.43 195.644 125.757 189.029C126.172 180.632 126.902 172.251 127.534 163.867C127.686 161.835 127.986 159.815 128.223 157.746C125.21 158.964 122.318 160.191 119.387 161.307C109.587 165.032 99.4835 167.386 89.0728 168.182C70.2475 169.621 52.3208 166.074 35.3155 157.549C23.4115 151.582 12.8648 143.62 3.31018 134.196C1.66218 132.572 0.574172 130.635 0.176839 128.299C0.150173 128.145 0.060845 128.005 -0.000488281 127.857V125.073Z" fill="rgba(0, 0, 0, 0.75)"/>
</svg>
