<?xml version="1.0" standalone="no"?>
<!DOCTYPE svg PUBLIC "-//W3C//DTD SVG 20010904//EN"
 "http://www.w3.org/TR/2001/REC-SVG-20010904/DTD/svg10.dtd">
<svg version="1.0" xmlns="http://www.w3.org/2000/svg"
 width="924.000000pt" height="924.000000pt" viewBox="0 0 924.000000 924.000000"
 preserveAspectRatio="xMidYMid meet">
<metadata>
Created by potrace 1.11, written by Peter Selinger 2001-2013
</metadata>
<g transform="translate(0.000000,924.000000) scale(0.100000,-0.100000)"
fill="#000000" stroke="none">
<path d="M3815 7140 c-66 -18 -112 -40 -165 -78 -39 -28 -200 -191 -200 -202
0 -4 -11 -20 -24 -35 -13 -16 -47 -67 -75 -114 -28 -47 -54 -90 -58 -96 -12
-14 -87 -170 -134 -277 -52 -118 -159 -408 -198 -538 -18 -58 -37 -116 -42
-130 -7 -21 -83 -295 -94 -340 -2 -8 -15 -62 -29 -120 -15 -58 -28 -114 -31
-125 -2 -11 -9 -38 -14 -60 -6 -22 -10 -41 -11 -42 0 -2 0 -4 -1 -5 -1 -4 -6
-28 -12 -58 -3 -14 -17 -77 -32 -140 -14 -63 -28 -126 -30 -140 -2 -14 -7 -36
-10 -50 -3 -14 -7 -29 -8 -35 -8 -34 -39 -57 -152 -114 -249 -125 -472 -193
-710 -218 -82 -8 -261 -8 -325 0 -119 15 -159 22 -235 42 -33 8 -69 17 -80 20
-51 12 -265 104 -289 124 -10 9 -21 15 -25 13 -12 -5 -191 112 -281 184 -50
39 -125 103 -166 140 -88 80 -112 95 -166 99 -76 5 -143 -28 -188 -94 -20 -30
-24 -48 -24 -106 0 -85 12 -111 91 -187 189 -184 361 -307 613 -441 117 -62
353 -146 480 -171 14 -3 36 -7 50 -10 25 -6 66 -12 135 -21 22 -3 82 -7 133
-10 52 -3 98 -8 103 -11 5 -3 9 -2 9 3 0 4 39 8 88 9 140 1 241 14 407 55 44
11 89 21 101 23 12 2 88 30 170 61 173 66 189 71 181 59 -8 -14 -16 -77 -22
-184 -4 -52 -8 -111 -10 -130 -24 -226 -24 -622 0 -800 9 -68 17 -119 31 -185
35 -172 126 -382 195 -447 10 -10 21 -24 26 -31 14 -22 96 -83 143 -107 199
-101 441 -20 608 201 23 31 42 61 42 67 0 7 4 12 8 12 9 0 88 152 94 180 2 8
5 17 8 20 6 5 56 166 66 210 3 14 12 66 20 115 8 50 18 111 22 136 8 45 7 387
-2 479 -12 143 -53 368 -84 468 -6 17 -8 32 -4 33 4 1 30 2 57 4 100 5 215 19
255 30 8 2 31 7 50 11 19 3 40 7 45 8 56 14 80 21 140 38 73 20 262 88 330
118 22 10 69 31 105 46 36 16 67 32 68 36 2 4 12 8 23 8 10 0 19 5 19 10 0 6
6 10 13 10 11 0 97 40 107 50 11 11 69 40 80 40 8 0 9 -7 5 -17 -4 -10 -9 -29
-11 -42 -3 -12 -12 -53 -20 -90 -9 -36 -18 -77 -21 -91 -2 -13 -13 -63 -24
-110 -11 -47 -22 -107 -24 -133 -3 -43 11 -104 26 -117 3 -3 8 -13 12 -22 8
-24 82 -68 123 -75 62 -10 117 5 161 45 54 48 66 79 109 282 3 14 12 54 20 90
9 36 18 76 20 90 3 14 14 62 24 107 11 46 21 93 24 105 2 13 14 65 26 116 12
51 23 99 24 105 10 57 26 77 86 108 84 44 201 35 285 -22 56 -38 81 -67 180
-209 150 -215 321 -410 455 -520 24 -19 48 -39 54 -45 137 -123 472 -296 641
-331 165 -34 158 -32 239 -41 82 -8 237 -8 316 1 157 16 178 20 285 48 44 11
87 22 95 23 8 2 16 4 18 5 1 2 5 3 10 4 80 19 302 109 442 180 180 91 222 116
407 239 65 43 130 86 145 95 46 29 90 107 93 168 1 30 -1 57 -6 60 -5 3 -9 12
-9 21 0 27 -49 82 -91 103 -21 11 -39 18 -39 14 0 -4 -6 -2 -12 3 -17 14 -109
5 -128 -11 -8 -7 -19 -15 -25 -17 -15 -6 -128 -82 -143 -97 -8 -7 -28 -20 -45
-29 -18 -9 -34 -19 -37 -23 -3 -4 -18 -15 -35 -24 -16 -9 -52 -30 -80 -47 -27
-16 -57 -32 -65 -36 -8 -3 -23 -13 -32 -21 -10 -8 -18 -11 -18 -7 0 4 -8 2
-17 -6 -16 -13 -119 -63 -233 -112 -58 -25 -233 -82 -285 -92 -14 -3 -113 -23
-155 -32 -79 -15 -353 -8 -450 12 -33 7 -158 48 -210 68 -204 81 -475 298
-630 507 -14 18 -30 38 -36 44 -5 6 -50 69 -99 139 -111 160 -196 250 -303
320 -23 15 -42 31 -42 35 0 4 26 35 58 67 31 33 82 89 112 125 30 36 57 67 60
70 3 3 23 30 45 60 38 52 60 83 95 136 68 101 159 290 199 413 31 92 35 111
47 181 3 19 8 38 10 42 2 4 6 49 9 102 2 52 5 98 6 103 1 4 1 10 0 13 -1 3 -4
34 -7 70 -5 75 -35 195 -65 260 -125 272 -386 378 -629 255 -30 -15 -56 -31
-58 -36 -2 -5 -9 -9 -15 -9 -10 0 -78 -63 -130 -120 -34 -38 -93 -133 -133
-215 -61 -128 -90 -212 -168 -505 -8 -30 -26 -97 -40 -147 -14 -51 -28 -103
-30 -115 -3 -13 -32 -126 -66 -253 -33 -126 -62 -239 -65 -250 -10 -48 -15
-68 -54 -225 -38 -151 -44 -167 -74 -192 -17 -15 -38 -28 -44 -28 -7 0 -13 -4
-13 -10 0 -5 -4 -10 -10 -10 -5 0 -38 -18 -72 -40 -35 -22 -69 -40 -75 -40 -7
0 -13 -3 -13 -7 0 -5 -10 -13 -23 -19 -12 -7 -89 -46 -170 -88 -399 -206 -708
-296 -1003 -293 -162 2 -170 5 -229 91 l-38 56 96 97 c53 54 105 109 117 123
12 14 33 39 48 55 22 24 157 193 205 255 47 61 158 229 186 280 14 25 27 47
30 50 7 5 93 179 97 195 2 6 16 44 33 85 32 82 43 111 46 123 2 4 3 8 5 10 1
1 3 9 5 17 2 8 15 58 29 110 28 108 33 132 42 210 3 30 8 64 10 75 6 24 5 270
0 305 -2 14 -7 45 -11 70 -3 25 -11 63 -17 85 -6 22 -12 46 -14 53 -7 35 -78
163 -116 208 -99 118 -247 165 -393 124z m122 -448 c15 -36 18 -49 30 -112 8
-45 7 -214 -1 -265 -4 -22 -9 -56 -12 -75 -3 -19 -10 -53 -15 -75 -5 -22 -12
-51 -15 -63 -13 -61 -70 -216 -110 -302 -25 -52 -46 -97 -46 -100 -1 -3 -21
-35 -45 -73 -24 -37 -43 -72 -43 -77 0 -6 -4 -10 -9 -10 -5 0 -12 -8 -15 -18
-4 -10 -14 -27 -24 -38 -9 -10 -29 -37 -44 -59 -103 -152 -448 -541 -448 -504
0 7 7 38 14 67 8 28 12 52 10 52 -3 0 -2 6 3 13 4 6 8 17 9 23 3 22 44 180 63
247 11 37 20 71 21 75 1 10 36 128 72 247 25 83 87 262 130 375 5 14 9 26 9
27 -1 6 80 187 118 263 42 86 104 195 113 198 4 2 8 9 8 16 0 11 86 124 114
151 41 38 79 64 88 59 5 -4 17 -23 25 -42z m2249 -25 c34 -52 47 -106 50 -202
3 -109 -8 -171 -47 -290 -30 -89 -104 -245 -140 -297 -10 -14 -19 -29 -19 -32
0 -4 -5 -12 -10 -19 -6 -7 -40 -51 -77 -99 -36 -49 -70 -88 -74 -88 -5 0 -9
-5 -9 -11 0 -10 -201 -221 -207 -216 -4 4 64 262 187 712 22 83 43 159 45 169
27 120 104 273 174 346 67 71 95 77 127 27z m-3121 -2433 c22 -19 72 -53 111
-74 l71 -40 32 -80 c32 -82 76 -234 87 -304 3 -21 7 -46 9 -55 2 -9 6 -43 10
-76 4 -32 10 -72 12 -89 6 -45 11 -380 6 -389 -3 -5 -7 -29 -9 -55 -15 -197
-105 -430 -202 -526 -61 -60 -82 -65 -120 -27 -68 68 -118 230 -148 481 -9 72
-10 492 -1 595 12 144 33 338 42 385 2 9 6 41 10 70 4 29 8 60 10 69 7 37 19
136 17 144 -5 18 26 4 63 -29z"/>
</g>
</svg>
